<?xml version="1.0" standalone="no"?>
<!DOCTYPE svg PUBLIC "-//W3C//DTD SVG 20010904//EN"
 "http://www.w3.org/TR/2001/REC-SVG-20010904/DTD/svg10.dtd">
<svg version="1.0" xmlns="http://www.w3.org/2000/svg"
 width="123.000000pt" height="123.000000pt" viewBox="0 0 123.000000 123.000000"
 preserveAspectRatio="xMidYMid meet">

<g transform="translate(0.000000,123.000000) scale(0.100000,-0.100000)"
 fill="#3e8ff3" stroke="none">
<path id="bg1" d="M0 615 l0 -615 615 0 615 0 0 615 0 615 -615 0 -615 0 0 -615z m538
223 c7 -7 12 -34 12 -61 0 -38 6 -56 25 -79 22 -26 25 -39 25 -112 0 -50 -5
-87 -12 -94 -17 -17 -279 -17 -296 0 -16 16 -16 170 0 186 8 8 47 12 110 12
l98 0 0 55 0 55 -85 0 -85 0 0 -30 c0 -25 -4 -30 -25 -30 -23 0 -25 4 -25 43
0 24 5 48 12 55 17 17 229 17 246 0z m420 0 c17 -17 17 -329 0 -346 -8 -8 -53
-12 -135 -12 l-123 0 0 -80 c0 -79 0 -80 -25 -80 l-25 0 0 253 c0 183 3 256
12 265 17 17 279 17 296 0z"/>
<path id="bg2" d="M390 585 l0 -55 55 0 55 0 0 55 0 55 -55 0 -55 0 0 -55z"/>
<path id="bg3" d="M760 762 c0 -28 7 -45 25 -62 22 -21 25 -32 25 -97 l0 -73 55 0 55 0
0 135 0 135 -80 0 -80 0 0 -38z"/>
</g>
</svg>
